<svg xmlns="http://www.w3.org/2000/svg" shape-rendering="geometricPrecision"
    text-rendering="geometricPrecision" image-rendering="optimizeQuality" fill-rule="evenodd"
    clip-rule="evenodd" viewBox="0 0 512 489.434" width="100px">
    <path fill="#EF4147"
        d="M266.131 425.009c-3.121 2.276-7.359 2.59-10.837.357-37.51-23.86-69.044-52.541-93.797-83.672-34.164-42.861-55.708-90.406-63.066-136.169-7.493-46.427-.492-91.073 22.612-127.381 9.098-14.36 20.739-27.428 34.923-38.714C188.57 13.428 225.81-.263 262.875.004c35.726.268 70.96 13.601 101.422 41.39 10.707 9.723 19.715 20.872 27.075 32.96 24.843 40.898 30.195 93.083 19.269 145.981-17.047 82.829-71.772 160.521-144.51 204.674zM255.789 37.251c69.041 0 125.006 55.965 125.006 125.005 0 69.041-55.965 125.006-125.006 125.006-69.04 0-125.005-55.965-125.005-125.006 0-69.04 55.965-125.005 125.005-125.005z" />
    <path fill="#1A1A1A"
        d="M199.185 144.595a12.974 12.974 0 01-8.073 2.814c-7.174 0-12.991-5.817-12.991-12.992 0-3.474 1.391-6.805 3.862-9.245 23.544-20.839 48.776-31.482 74.317-31.04 25.54.443 49.795 11.396 73.561 33.57a12.992 12.992 0 013.595 8.971c0 7.174-5.817 12.991-12.991 12.991a12.997 12.997 0 01-8.339-3.029c-18.624-17.737-37.513-26.162-55.915-26.606-18.403-.443-38.134 8.07-56.713 24.521l-.313.045zm-89.661 172.589c6.788 0 12.29 5.502 12.29 12.29 0 6.788-5.502 12.291-12.29 12.291H71.37L33.265 464.853h444.623l-41.373-123.088H407.93c-6.788 0-12.291-5.503-12.291-12.291s5.503-12.29 12.291-12.29h46.171L512 489.435H0l53.325-172.251h56.199zm146.111-122.97h.043c9.99 0 18.091 8.101 18.091 18.091 0 9.991-8.101 18.089-18.091 18.089-9.989 0-18.089-8.098-18.089-18.089 0-9.971 8.074-18.067 18.047-18.091h-.001zm-29.4-9.711a12.983 12.983 0 01-8.755 3.394c-7.175 0-12.992-5.817-12.992-12.99 0-4.173 2.005-8.094 5.387-10.534a72.911 72.911 0 0145.938-17.742 71.334 71.334 0 0145.625 17.737 13.008 13.008 0 014.236 9.6c0 7.175-5.817 12.992-12.992 12.992-2.73 0-5.393-.86-7.606-2.458a45.917 45.917 0 00-29.266-11.704 47.145 47.145 0 00-29.575 11.928v-.223z" />
</svg>