<svg width="280.675" height="24.3" viewBox="0 0 280.675 24.3" xmlns="http://www.w3.org/2000/svg">
    <g id="svgGroup" stroke-linecap="round" fill-rule="evenodd" font-size="9pt" stroke="#ffffff"
        stroke-width="0.25mm" fill="#ffffff" style="stroke:#ffffff;stroke-width:0.25mm;fill:#ffffff">
        <path
            d="M 135.375 18.5 L 132.425 18.5 L 127.675 1.575 L 130.025 0.825 L 133.975 15.975 L 137.7 2.825 L 140.675 2.825 L 144.375 15.975 L 148.3 0.9 L 150.5 1.575 L 145.775 18.5 L 142.825 18.5 L 139.125 5.35 L 135.375 18.5 Z M 12.525 17.1 L 10.875 18.8 L 2.375 10.45 L 2.375 18.5 L 0 18.5 L 0 1 L 2.375 1 L 2.375 8.975 L 9.825 0.925 L 11.425 2.4 L 4.6 9.5 L 12.525 17.1 Z M 193.325 18.5 L 191.075 18.5 L 191.075 0 L 193.325 0 L 193.325 7.575 Q 194.025 6.55 195.1 5.875 A 4.393 4.393 0 0 1 196.881 5.248 A 5.649 5.649 0 0 1 197.625 5.2 A 5.806 5.806 0 0 1 198.891 5.329 Q 199.727 5.516 200.336 5.973 A 3.315 3.315 0 0 1 200.912 6.525 A 4.601 4.601 0 0 1 201.814 8.37 Q 201.977 9.03 201.997 9.802 A 8.441 8.441 0 0 1 202 10.025 L 202 18.5 L 199.75 18.5 L 199.75 10.275 Q 199.75 9.127 199.313 8.349 A 2.746 2.746 0 0 0 199.1 8.025 A 2.105 2.105 0 0 0 197.561 7.188 A 2.995 2.995 0 0 0 197.275 7.175 A 3.307 3.307 0 0 0 195.597 7.642 A 4.396 4.396 0 0 0 195.087 7.987 Q 194.05 8.8 193.325 9.9 L 193.325 18.5 Z M 76.475 23.8 L 76.975 21.925 A 2.477 2.477 0 0 0 77.266 22.069 Q 77.472 22.155 77.725 22.225 A 3.378 3.378 0 0 0 78.295 22.329 A 4.339 4.339 0 0 0 78.725 22.35 Q 79.775 22.35 80.6 21.675 Q 81.294 21.107 81.935 19.619 A 14.645 14.645 0 0 0 82.175 19.025 L 82.75 17.525 L 81.55 17.525 L 76.475 6.1 L 78.475 5.2 L 83.325 16.025 L 87.1 5.3 L 89.175 6.1 L 84.4 19.15 Q 83.891 20.555 83.319 21.529 A 7.715 7.715 0 0 1 82.825 22.275 Q 81.975 23.4 80.95 23.85 Q 80.179 24.188 79.281 24.272 A 6.513 6.513 0 0 1 78.675 24.3 A 6.355 6.355 0 0 1 78.055 24.271 Q 77.749 24.241 77.483 24.18 A 3.647 3.647 0 0 1 77.362 24.15 Q 76.8 24 76.475 23.8 Z M 251.4 17.875 L 249.225 18.75 L 247.275 13.75 L 239.175 13.75 L 237.225 18.7 L 235.2 17.875 L 242.05 1 L 244.65 1 L 251.4 17.875 Z M 108.975 17.45 L 109.925 15.575 A 4.639 4.639 0 0 0 110.711 16.106 Q 111.1 16.318 111.563 16.488 A 6.018 6.018 0 0 0 113.465 16.847 A 6.866 6.866 0 0 0 113.675 16.85 A 6.778 6.778 0 0 0 114.446 16.809 Q 115.242 16.718 115.734 16.421 A 1.934 1.934 0 0 0 115.788 16.388 A 1.862 1.862 0 0 0 116.171 16.064 A 1.263 1.263 0 0 0 116.5 15.2 A 1.781 1.781 0 0 0 116.421 14.663 A 1.553 1.553 0 0 0 116.238 14.275 Q 115.975 13.875 115.275 13.488 A 7.116 7.116 0 0 0 114.776 13.239 Q 114.247 12.999 113.5 12.736 A 25.896 25.896 0 0 0 113.25 12.65 A 11.654 11.654 0 0 1 112.151 12.214 Q 111.126 11.742 110.513 11.163 A 2.831 2.831 0 0 1 109.689 9.663 A 4.198 4.198 0 0 1 109.6 8.775 A 3.03 3.03 0 0 1 110.587 6.521 A 4.366 4.366 0 0 1 110.913 6.237 A 4.441 4.441 0 0 1 112.422 5.476 Q 113.351 5.2 114.55 5.2 Q 115.8 5.2 116.775 5.462 A 9.692 9.692 0 0 1 117.809 5.801 A 7.778 7.778 0 0 1 118.525 6.125 L 117.9 7.975 A 6.132 6.132 0 0 0 116.983 7.534 A 7.548 7.548 0 0 0 116.363 7.325 Q 115.5 7.075 114.45 7.075 A 5.158 5.158 0 0 0 113.716 7.124 Q 112.944 7.235 112.475 7.6 A 2.33 2.33 0 0 0 112.136 7.918 Q 111.96 8.123 111.876 8.341 A 1.132 1.132 0 0 0 111.8 8.75 A 1.23 1.23 0 0 0 112.174 9.638 A 1.771 1.771 0 0 0 112.325 9.775 Q 112.841 10.193 114.325 10.683 A 21.155 21.155 0 0 0 114.375 10.7 A 16.938 16.938 0 0 1 115.641 11.174 Q 116.844 11.686 117.533 12.257 A 3.737 3.737 0 0 1 117.825 12.525 Q 118.8 13.525 118.8 15.025 A 3.468 3.468 0 0 1 118.534 16.404 Q 118.188 17.214 117.388 17.788 Q 116.203 18.637 114.34 18.774 A 10.106 10.106 0 0 1 113.6 18.8 A 9.997 9.997 0 0 1 112.135 18.697 A 7.737 7.737 0 0 1 110.938 18.425 A 7.721 7.721 0 0 1 109.977 18.054 Q 109.411 17.788 108.975 17.45 Z M 256.375 24 L 254.125 24 L 254.125 8.825 A 2.754 2.754 0 0 0 254.093 8.391 Q 254.057 8.167 253.981 7.991 A 1.051 1.051 0 0 0 253.713 7.612 Q 253.3 7.25 252.65 7.25 L 253.125 5.5 A 4.381 4.381 0 0 1 254.182 5.618 Q 254.895 5.795 255.356 6.241 A 2.538 2.538 0 0 1 256 7.325 A 2.856 2.856 0 0 1 256.198 7.065 Q 256.419 6.804 256.763 6.494 A 9.645 9.645 0 0 1 256.812 6.45 A 4.725 4.725 0 0 1 257.488 5.954 A 6.392 6.392 0 0 1 258.212 5.575 A 4.239 4.239 0 0 1 259.352 5.253 A 5.471 5.471 0 0 1 260.125 5.2 Q 261.625 5.2 262.938 5.987 A 5.582 5.582 0 0 1 264.732 7.729 A 6.866 6.866 0 0 1 265.05 8.263 A 6.421 6.421 0 0 1 265.674 10.023 Q 265.85 10.879 265.85 11.875 A 9.142 9.142 0 0 1 265.674 13.708 A 7.026 7.026 0 0 1 265.05 15.513 A 6.962 6.962 0 0 1 264.067 16.97 A 5.757 5.757 0 0 1 262.963 17.937 Q 261.675 18.8 260.175 18.8 Q 259.025 18.8 258.025 18.338 Q 257.058 17.89 256.419 17.315 A 4.666 4.666 0 0 1 256.375 17.275 L 256.375 24 Z M 271.2 24 L 268.95 24 L 268.95 8.825 A 2.754 2.754 0 0 0 268.918 8.391 Q 268.882 8.167 268.806 7.991 A 1.051 1.051 0 0 0 268.538 7.612 Q 268.125 7.25 267.475 7.25 L 267.95 5.5 A 4.381 4.381 0 0 1 269.007 5.618 Q 269.72 5.795 270.181 6.241 A 2.538 2.538 0 0 1 270.825 7.325 A 2.856 2.856 0 0 1 271.023 7.065 Q 271.244 6.804 271.588 6.494 A 9.645 9.645 0 0 1 271.637 6.45 A 4.725 4.725 0 0 1 272.313 5.954 A 6.392 6.392 0 0 1 273.037 5.575 A 4.239 4.239 0 0 1 274.177 5.253 A 5.471 5.471 0 0 1 274.95 5.2 Q 276.45 5.2 277.763 5.987 A 5.582 5.582 0 0 1 279.557 7.729 A 6.866 6.866 0 0 1 279.875 8.263 A 6.421 6.421 0 0 1 280.499 10.023 Q 280.675 10.879 280.675 11.875 A 9.142 9.142 0 0 1 280.499 13.708 A 7.026 7.026 0 0 1 279.875 15.513 A 6.962 6.962 0 0 1 278.892 16.97 A 5.757 5.757 0 0 1 277.788 17.937 Q 276.5 18.8 275 18.8 Q 273.85 18.8 272.85 18.338 Q 271.883 17.89 271.244 17.315 A 4.666 4.666 0 0 1 271.2 17.275 L 271.2 24 Z M 162.65 12.925 L 153.55 12.925 A 6.022 6.022 0 0 0 153.835 14.181 Q 154.132 15.03 154.685 15.631 A 3.745 3.745 0 0 0 154.825 15.775 A 3.536 3.536 0 0 0 156.731 16.728 A 5.005 5.005 0 0 0 157.6 16.8 Q 158.725 16.8 159.625 16.563 Q 160.525 16.325 161.35 15.95 L 161.875 17.875 A 10.192 10.192 0 0 1 160.791 18.281 A 12.966 12.966 0 0 1 159.85 18.538 Q 158.725 18.8 157.325 18.8 Q 154.525 18.8 152.888 17.013 A 5.88 5.88 0 0 1 151.586 14.628 Q 151.334 13.753 151.271 12.712 A 11.781 11.781 0 0 1 151.25 12 A 8.84 8.84 0 0 1 151.458 10.045 A 7.21 7.21 0 0 1 151.987 8.512 A 6.16 6.16 0 0 1 153.242 6.742 A 5.722 5.722 0 0 1 154.05 6.087 A 5.262 5.262 0 0 1 156.615 5.22 A 6.551 6.551 0 0 1 157.125 5.2 A 7.138 7.138 0 0 1 158.493 5.324 Q 159.329 5.487 159.996 5.865 A 4.303 4.303 0 0 1 160.237 6.013 Q 161.475 6.825 162.1 8.2 A 7.046 7.046 0 0 1 162.707 10.666 A 8.359 8.359 0 0 1 162.725 11.225 A 18.801 18.801 0 0 1 162.652 12.899 A 17.613 17.613 0 0 1 162.65 12.925 Z M 216.4 12.925 L 207.3 12.925 A 6.022 6.022 0 0 0 207.585 14.181 Q 207.882 15.03 208.435 15.631 A 3.745 3.745 0 0 0 208.575 15.775 A 3.536 3.536 0 0 0 210.481 16.728 A 5.005 5.005 0 0 0 211.35 16.8 Q 212.475 16.8 213.375 16.563 Q 214.275 16.325 215.1 15.95 L 215.625 17.875 A 10.192 10.192 0 0 1 214.541 18.281 A 12.966 12.966 0 0 1 213.6 18.538 Q 212.475 18.8 211.075 18.8 Q 208.275 18.8 206.638 17.013 A 5.88 5.88 0 0 1 205.336 14.628 Q 205.084 13.753 205.021 12.712 A 11.781 11.781 0 0 1 205 12 A 8.84 8.84 0 0 1 205.208 10.045 A 7.21 7.21 0 0 1 205.737 8.512 A 6.16 6.16 0 0 1 206.992 6.742 A 5.722 5.722 0 0 1 207.8 6.087 A 5.262 5.262 0 0 1 210.365 5.22 A 6.551 6.551 0 0 1 210.875 5.2 A 7.138 7.138 0 0 1 212.243 5.324 Q 213.079 5.487 213.746 5.865 A 4.303 4.303 0 0 1 213.987 6.013 Q 215.225 6.825 215.85 8.2 A 7.046 7.046 0 0 1 216.457 10.666 A 8.359 8.359 0 0 1 216.475 11.225 A 18.801 18.801 0 0 1 216.402 12.899 A 17.613 17.613 0 0 1 216.4 12.925 Z M 70.85 18.5 L 68.5 18.5 L 63.275 6.1 L 65.325 5.25 L 69.75 15.95 L 74.175 5.25 L 76.1 6.1 L 70.85 18.5 Z M 41.175 14.025 L 41.175 7.925 L 38.925 7.925 L 38.925 5.975 L 41.225 5.975 L 41.7 1.875 L 43.425 1.875 L 43.425 5.975 L 47.025 5.975 L 47.025 7.925 L 43.425 7.925 L 43.425 14.2 Q 43.425 15.485 43.906 16.083 A 1.389 1.389 0 0 0 44.038 16.225 Q 44.65 16.8 45.5 16.8 Q 46.125 16.8 46.688 16.6 A 6.433 6.433 0 0 0 47.482 16.258 A 5.692 5.692 0 0 0 47.725 16.125 L 48.35 17.925 A 4.637 4.637 0 0 1 47.945 18.139 Q 47.545 18.328 47 18.513 Q 46.15 18.8 45.225 18.8 A 5.649 5.649 0 0 1 45.196 18.8 Q 44.486 18.796 43.89 18.614 A 3.481 3.481 0 0 1 42.263 17.562 A 4.029 4.029 0 0 1 41.455 16.087 Q 41.265 15.479 41.204 14.745 A 8.694 8.694 0 0 1 41.175 14.025 Z M 181.65 14.025 L 181.65 7.925 L 179.4 7.925 L 179.4 5.975 L 181.7 5.975 L 182.175 1.875 L 183.9 1.875 L 183.9 5.975 L 187.5 5.975 L 187.5 7.925 L 183.9 7.925 L 183.9 14.2 Q 183.9 15.485 184.381 16.083 A 1.389 1.389 0 0 0 184.513 16.225 Q 185.125 16.8 185.975 16.8 Q 186.6 16.8 187.163 16.6 A 6.433 6.433 0 0 0 187.957 16.258 A 5.692 5.692 0 0 0 188.2 16.125 L 188.825 17.925 A 4.637 4.637 0 0 1 188.42 18.139 Q 188.02 18.328 187.475 18.513 Q 186.625 18.8 185.7 18.8 A 5.649 5.649 0 0 1 185.671 18.8 Q 184.961 18.796 184.365 18.614 A 3.481 3.481 0 0 1 182.738 17.562 A 4.029 4.029 0 0 1 181.93 16.087 Q 181.74 15.479 181.679 14.745 A 8.694 8.694 0 0 1 181.65 14.025 Z M 23.675 6.55 L 23.675 5.5 L 25.725 5.5 L 25.725 15.35 A 3.037 3.037 0 0 0 25.75 15.759 Q 25.833 16.367 26.188 16.588 Q 26.65 16.875 27.2 16.875 L 26.725 18.625 Q 24.384 18.625 23.851 16.77 A 3.398 3.398 0 0 1 23.825 16.675 A 5.327 5.327 0 0 1 23.048 17.531 A 7.125 7.125 0 0 1 22.263 18.138 A 3.732 3.732 0 0 1 21.024 18.663 Q 20.52 18.782 19.932 18.798 A 6.8 6.8 0 0 1 19.75 18.8 Q 18.125 18.8 16.8 17.975 A 5.737 5.737 0 0 1 14.947 16.093 A 6.981 6.981 0 0 1 14.687 15.638 A 6.807 6.807 0 0 1 14.03 13.652 A 9.161 9.161 0 0 1 13.9 12.075 A 8.285 8.285 0 0 1 14.149 10.008 A 6.992 6.992 0 0 1 14.688 8.575 Q 15.475 7.025 16.863 6.112 A 5.574 5.574 0 0 1 19.661 5.211 A 6.847 6.847 0 0 1 20.05 5.2 Q 21.175 5.2 22.088 5.587 A 6.5 6.5 0 0 1 23.159 6.161 A 5.526 5.526 0 0 1 23.675 6.55 Z M 59 6.55 L 59 5.5 L 61.05 5.5 L 61.05 15.35 A 3.037 3.037 0 0 0 61.075 15.759 Q 61.158 16.367 61.513 16.588 Q 61.975 16.875 62.525 16.875 L 62.05 18.625 Q 59.709 18.625 59.176 16.77 A 3.398 3.398 0 0 1 59.15 16.675 A 5.327 5.327 0 0 1 58.373 17.531 A 7.125 7.125 0 0 1 57.588 18.138 A 3.732 3.732 0 0 1 56.349 18.663 Q 55.845 18.782 55.257 18.798 A 6.8 6.8 0 0 1 55.075 18.8 Q 53.45 18.8 52.125 17.975 A 5.737 5.737 0 0 1 50.272 16.093 A 6.981 6.981 0 0 1 50.012 15.638 A 6.807 6.807 0 0 1 49.355 13.652 A 9.161 9.161 0 0 1 49.225 12.075 A 8.285 8.285 0 0 1 49.474 10.008 A 6.992 6.992 0 0 1 50.013 8.575 Q 50.8 7.025 52.188 6.112 A 5.574 5.574 0 0 1 54.986 5.211 A 6.847 6.847 0 0 1 55.375 5.2 Q 56.5 5.2 57.413 5.587 A 6.5 6.5 0 0 1 58.484 6.161 A 5.526 5.526 0 0 1 59 6.55 Z M 99.825 6.55 L 99.825 5.5 L 101.875 5.5 L 101.875 15.35 A 3.037 3.037 0 0 0 101.9 15.759 Q 101.983 16.367 102.338 16.588 Q 102.8 16.875 103.35 16.875 L 102.875 18.625 Q 100.534 18.625 100.001 16.77 A 3.398 3.398 0 0 1 99.975 16.675 A 5.327 5.327 0 0 1 99.198 17.531 A 7.125 7.125 0 0 1 98.413 18.138 A 3.732 3.732 0 0 1 97.174 18.663 Q 96.67 18.782 96.082 18.798 A 6.8 6.8 0 0 1 95.9 18.8 Q 94.275 18.8 92.95 17.975 A 5.737 5.737 0 0 1 91.097 16.093 A 6.981 6.981 0 0 1 90.837 15.638 A 6.807 6.807 0 0 1 90.18 13.652 A 9.161 9.161 0 0 1 90.05 12.075 A 8.285 8.285 0 0 1 90.299 10.008 A 6.992 6.992 0 0 1 90.838 8.575 Q 91.625 7.025 93.013 6.112 A 5.574 5.574 0 0 1 95.811 5.211 A 6.847 6.847 0 0 1 96.2 5.2 Q 97.325 5.2 98.238 5.587 A 6.5 6.5 0 0 1 99.309 6.161 A 5.526 5.526 0 0 1 99.825 6.55 Z M 174.625 6.55 L 174.625 5.5 L 176.675 5.5 L 176.675 15.35 A 3.037 3.037 0 0 0 176.7 15.759 Q 176.783 16.367 177.138 16.588 Q 177.6 16.875 178.15 16.875 L 177.675 18.625 Q 175.334 18.625 174.801 16.77 A 3.398 3.398 0 0 1 174.775 16.675 A 5.327 5.327 0 0 1 173.998 17.531 A 7.125 7.125 0 0 1 173.213 18.138 A 3.732 3.732 0 0 1 171.974 18.663 Q 171.47 18.782 170.882 18.798 A 6.8 6.8 0 0 1 170.7 18.8 Q 169.075 18.8 167.75 17.975 A 5.737 5.737 0 0 1 165.897 16.093 A 6.981 6.981 0 0 1 165.637 15.638 A 6.807 6.807 0 0 1 164.98 13.652 A 9.161 9.161 0 0 1 164.85 12.075 A 8.285 8.285 0 0 1 165.099 10.008 A 6.992 6.992 0 0 1 165.638 8.575 Q 166.425 7.025 167.813 6.112 A 5.574 5.574 0 0 1 170.611 5.211 A 6.847 6.847 0 0 1 171 5.2 Q 172.125 5.2 173.038 5.587 A 6.5 6.5 0 0 1 174.109 6.161 A 5.526 5.526 0 0 1 174.625 6.55 Z M 32.45 18.5 L 30.2 18.5 L 30.2 5.5 L 32.375 5.5 L 32.375 8.325 Q 32.7 7.5 33.25 6.788 Q 33.8 6.075 34.625 5.637 A 3.704 3.704 0 0 1 35.795 5.257 A 4.865 4.865 0 0 1 36.55 5.2 Q 36.925 5.2 37.3 5.237 Q 37.583 5.266 37.795 5.316 A 2.204 2.204 0 0 1 37.925 5.35 L 37.25 7.675 Q 36.797 7.484 36.184 7.475 A 4.148 4.148 0 0 0 36.125 7.475 Q 35.2 7.475 34.363 8 Q 33.525 8.525 32.988 9.625 A 4.83 4.83 0 0 0 32.62 10.702 Q 32.504 11.223 32.467 11.832 A 9.772 9.772 0 0 0 32.45 12.425 L 32.45 18.5 Z M 221.725 18.5 L 219.475 18.5 L 219.475 5.5 L 221.65 5.5 L 221.65 8.325 Q 221.975 7.5 222.525 6.788 Q 223.075 6.075 223.9 5.637 A 3.704 3.704 0 0 1 225.07 5.257 A 4.865 4.865 0 0 1 225.825 5.2 Q 226.2 5.2 226.575 5.237 Q 226.858 5.266 227.07 5.316 A 2.204 2.204 0 0 1 227.2 5.35 L 226.525 7.675 Q 226.072 7.484 225.459 7.475 A 4.148 4.148 0 0 0 225.4 7.475 Q 224.475 7.475 223.638 8 Q 222.8 8.525 222.263 9.625 A 4.83 4.83 0 0 0 221.895 10.702 Q 221.779 11.223 221.742 11.832 A 9.772 9.772 0 0 0 221.725 12.425 L 221.725 18.5 Z M 23.475 15.175 L 23.475 8.2 Q 22.8 7.725 21.988 7.438 Q 21.175 7.15 20.275 7.15 A 3.981 3.981 0 0 0 19.032 7.338 A 3.506 3.506 0 0 0 18.162 7.763 A 4.075 4.075 0 0 0 16.908 9.118 A 4.991 4.991 0 0 0 16.725 9.462 A 5.166 5.166 0 0 0 16.287 10.882 A 6.92 6.92 0 0 0 16.2 12 A 6.392 6.392 0 0 0 16.331 13.322 A 5.086 5.086 0 0 0 16.725 14.487 A 4.4 4.4 0 0 0 17.501 15.624 A 3.924 3.924 0 0 0 18.175 16.188 Q 19.1 16.8 20.25 16.8 Q 21.2 16.8 22.05 16.337 A 4.863 4.863 0 0 0 23.23 15.45 A 4.518 4.518 0 0 0 23.475 15.175 Z M 58.8 15.175 L 58.8 8.2 Q 58.125 7.725 57.313 7.438 Q 56.5 7.15 55.6 7.15 A 3.981 3.981 0 0 0 54.357 7.338 A 3.506 3.506 0 0 0 53.487 7.763 A 4.075 4.075 0 0 0 52.233 9.118 A 4.991 4.991 0 0 0 52.05 9.462 A 5.166 5.166 0 0 0 51.612 10.882 A 6.92 6.92 0 0 0 51.525 12 A 6.392 6.392 0 0 0 51.656 13.322 A 5.086 5.086 0 0 0 52.05 14.487 A 4.4 4.4 0 0 0 52.826 15.624 A 3.924 3.924 0 0 0 53.5 16.188 Q 54.425 16.8 55.575 16.8 Q 56.525 16.8 57.375 16.337 A 4.863 4.863 0 0 0 58.555 15.45 A 4.518 4.518 0 0 0 58.8 15.175 Z M 99.625 15.175 L 99.625 8.2 Q 98.95 7.725 98.138 7.438 Q 97.325 7.15 96.425 7.15 A 3.981 3.981 0 0 0 95.182 7.338 A 3.506 3.506 0 0 0 94.312 7.763 A 4.075 4.075 0 0 0 93.058 9.118 A 4.991 4.991 0 0 0 92.875 9.462 A 5.166 5.166 0 0 0 92.437 10.882 A 6.92 6.92 0 0 0 92.35 12 A 6.392 6.392 0 0 0 92.481 13.322 A 5.086 5.086 0 0 0 92.875 14.487 A 4.4 4.4 0 0 0 93.651 15.624 A 3.924 3.924 0 0 0 94.325 16.188 Q 95.25 16.8 96.4 16.8 Q 97.35 16.8 98.2 16.337 A 4.863 4.863 0 0 0 99.38 15.45 A 4.518 4.518 0 0 0 99.625 15.175 Z M 174.425 15.175 L 174.425 8.2 Q 173.75 7.725 172.938 7.438 Q 172.125 7.15 171.225 7.15 A 3.981 3.981 0 0 0 169.982 7.338 A 3.506 3.506 0 0 0 169.112 7.763 A 4.075 4.075 0 0 0 167.858 9.118 A 4.991 4.991 0 0 0 167.675 9.462 A 5.166 5.166 0 0 0 167.237 10.882 A 6.92 6.92 0 0 0 167.15 12 A 6.392 6.392 0 0 0 167.281 13.322 A 5.086 5.086 0 0 0 167.675 14.487 A 4.4 4.4 0 0 0 168.451 15.624 A 3.924 3.924 0 0 0 169.125 16.188 Q 170.05 16.8 171.2 16.8 Q 172.15 16.8 173 16.337 A 4.863 4.863 0 0 0 174.18 15.45 A 4.518 4.518 0 0 0 174.425 15.175 Z M 256.375 8.85 L 256.375 15.25 Q 257.025 15.925 257.875 16.363 Q 258.725 16.8 259.725 16.8 Q 261.398 16.8 262.454 15.504 A 4.347 4.347 0 0 0 262.487 15.462 Q 263.494 14.196 263.547 12.177 A 8.638 8.638 0 0 0 263.55 11.95 Q 263.55 10.503 263.05 9.452 A 4.335 4.335 0 0 0 263.012 9.375 Q 262.475 8.3 261.587 7.725 Q 260.7 7.15 259.625 7.15 Q 258.55 7.15 257.688 7.688 Q 256.825 8.225 256.375 8.85 Z M 271.2 8.85 L 271.2 15.25 Q 271.85 15.925 272.7 16.363 Q 273.55 16.8 274.55 16.8 Q 276.223 16.8 277.279 15.504 A 4.347 4.347 0 0 0 277.312 15.462 Q 278.319 14.196 278.372 12.177 A 8.638 8.638 0 0 0 278.375 11.95 Q 278.375 10.503 277.875 9.452 A 4.335 4.335 0 0 0 277.837 9.375 Q 277.3 8.3 276.413 7.725 Q 275.525 7.15 274.45 7.15 Q 273.375 7.15 272.513 7.688 Q 271.65 8.225 271.2 8.85 Z M 243.225 3.35 L 239.925 11.75 L 246.5 11.75 L 243.225 3.35 Z M 153.525 11.1 L 160.65 11.1 A 6.089 6.089 0 0 0 160.549 9.954 Q 160.34 8.866 159.7 8.175 A 3.122 3.122 0 0 0 157.96 7.231 A 4.599 4.599 0 0 0 157.075 7.15 A 3.395 3.395 0 0 0 155.797 7.384 A 3.131 3.131 0 0 0 154.675 8.162 A 3.791 3.791 0 0 0 153.94 9.335 Q 153.729 9.85 153.613 10.48 A 8.005 8.005 0 0 0 153.525 11.1 Z M 207.275 11.1 L 214.4 11.1 A 6.089 6.089 0 0 0 214.299 9.954 Q 214.09 8.866 213.45 8.175 A 3.122 3.122 0 0 0 211.71 7.231 A 4.599 4.599 0 0 0 210.825 7.15 A 3.395 3.395 0 0 0 209.547 7.384 A 3.131 3.131 0 0 0 208.425 8.162 A 3.791 3.791 0 0 0 207.69 9.335 Q 207.479 9.85 207.363 10.48 A 8.005 8.005 0 0 0 207.275 11.1 Z M 107.125 6.55 L 105.35 6.55 L 105.15 1 L 107.325 1 L 107.125 6.55 Z"
            vector-effect="non-scaling-stroke" />
    </g>
</svg>